<mxfile host="app.diagrams.net" agent="Mozilla/5.0 (Windows NT 10.0; Win64; x64) AppleWebKit/537.36 (KHTML, like Gecko) Chrome/127.0.0.0 Safari/537.36" version="24.7.6">
  <diagram name="Page-1" id="En1oAN95qIlgwW1jDNFJ">
    <mxGraphModel dx="594" dy="1578" grid="1" gridSize="10" guides="1" tooltips="1" connect="1" arrows="1" fold="1" page="1" pageScale="1" pageWidth="850" pageHeight="1100" math="0" shadow="0">
      <root>
        <mxCell id="0" />
        <mxCell id="1" parent="0" />
        <mxCell id="CKaB0bO2r2orbKNkFTON-4" style="edgeStyle=orthogonalEdgeStyle;rounded=0;orthogonalLoop=1;jettySize=auto;html=1;entryX=0.5;entryY=0;entryDx=0;entryDy=0;" edge="1" parent="1" source="CKaB0bO2r2orbKNkFTON-1" target="CKaB0bO2r2orbKNkFTON-2">
          <mxGeometry relative="1" as="geometry" />
        </mxCell>
        <mxCell id="CKaB0bO2r2orbKNkFTON-5" style="edgeStyle=orthogonalEdgeStyle;rounded=0;orthogonalLoop=1;jettySize=auto;html=1;entryX=0.5;entryY=0;entryDx=0;entryDy=0;" edge="1" parent="1" source="CKaB0bO2r2orbKNkFTON-1" target="CKaB0bO2r2orbKNkFTON-3">
          <mxGeometry relative="1" as="geometry" />
        </mxCell>
        <mxCell id="CKaB0bO2r2orbKNkFTON-1" value="root-component" style="rounded=0;whiteSpace=wrap;html=1;" vertex="1" parent="1">
          <mxGeometry x="250" y="770" width="120" height="60" as="geometry" />
        </mxCell>
        <mxCell id="CKaB0bO2r2orbKNkFTON-2" value="child-a-component" style="rounded=0;whiteSpace=wrap;html=1;" vertex="1" parent="1">
          <mxGeometry x="130" y="900" width="120" height="60" as="geometry" />
        </mxCell>
        <mxCell id="CKaB0bO2r2orbKNkFTON-8" style="edgeStyle=orthogonalEdgeStyle;rounded=0;orthogonalLoop=1;jettySize=auto;html=1;" edge="1" parent="1" source="CKaB0bO2r2orbKNkFTON-3" target="CKaB0bO2r2orbKNkFTON-6">
          <mxGeometry relative="1" as="geometry" />
        </mxCell>
        <mxCell id="CKaB0bO2r2orbKNkFTON-9" style="edgeStyle=orthogonalEdgeStyle;rounded=0;orthogonalLoop=1;jettySize=auto;html=1;" edge="1" parent="1" source="CKaB0bO2r2orbKNkFTON-3" target="CKaB0bO2r2orbKNkFTON-7">
          <mxGeometry relative="1" as="geometry" />
        </mxCell>
        <mxCell id="CKaB0bO2r2orbKNkFTON-3" value="child-b-component" style="rounded=0;whiteSpace=wrap;html=1;" vertex="1" parent="1">
          <mxGeometry x="370" y="900" width="120" height="60" as="geometry" />
        </mxCell>
        <mxCell id="CKaB0bO2r2orbKNkFTON-6" value="grandchild-b-component" style="rounded=0;whiteSpace=wrap;html=1;" vertex="1" parent="1">
          <mxGeometry x="250" y="1000" width="120" height="60" as="geometry" />
        </mxCell>
        <mxCell id="CKaB0bO2r2orbKNkFTON-7" value="grandchild-b-component" style="rounded=0;whiteSpace=wrap;html=1;" vertex="1" parent="1">
          <mxGeometry x="490" y="1000" width="120" height="60" as="geometry" />
        </mxCell>
      </root>
    </mxGraphModel>
  </diagram>
</mxfile>
